<?xml version="1.0" encoding="UTF-8"?>
<svg xmlns="http://www.w3.org/2000/svg" width="1600" height="900" viewBox="0 0 1600 900">
  <title>HUNTCON 2027 logo white</title>
  <desc>Threat hunting conference logo with mountains, HUNTCON wordmark and target-shaped O.</desc>
  <defs>
    <style>
      .main { font-family:'Orbitron','Michroma','Montserrat','Arial',sans-serif;font-weight:700;font-size:170px;letter-spacing:2px; }
      .year { font-family:'Orbitron','Michroma','Montserrat','Arial',sans-serif;font-weight:700;font-size:82px;letter-spacing:10px; }
      .sub { font-family:'Orbitron','Michroma','Montserrat','Arial',sans-serif;font-weight:600;font-size:42px;letter-spacing:5px; }
    </style>
  </defs>
  <g id="mountains">
    <path d="M 220 330
    L 360 225
    L 480 295
    L 650 120
    L 745 215
    L 850 150
    L 1045 320
    L 1120 225
    L 1280 330" fill="none" stroke="#FFFFFF" stroke-width="8" stroke-linejoin="round" stroke-linecap="round"/>
    <path d="M 265 305 L 360 225 L 430 266 L 382 252 L 355 286 L 300 314 Z" fill="#FFFFFF"/>
    <path d="M 430 275 L 650 120 L 732 203 L 710 168 L 690 195 L 675 140 L 650 202 L 635 165 L 612 224 L 560 185 L 500 244 Z" fill="#FFFFFF"/>
    <path d="M 760 205 L 850 150 L 1010 295 L 965 262 L 940 214 L 912 246 L 885 185 L 855 230 L 820 188 Z" fill="#FFFFFF"/>
    <path d="M 1075 278 L 1120 225 L 1280 330 L 1202 300 L 1160 262 L 1140 287 Z" fill="#FFFFFF"/>
    <path d="M 300 316 L 366 261 L 430 265 L 346 330 Z" fill="#12B8F4"/>
    <path d="M 525 268 L 610 215 L 578 282 L 487 332 Z" fill="#12B8F4"/>
    <path d="M 770 182 L 840 214 L 892 286 L 832 248 Z" fill="#12B8F4"/>
    <path d="M 926 247 L 998 288 L 1045 320 L 974 284 Z" fill="#12B8F4"/>
    <path d="M 1130 245 L 1205 298 L 1254 319 L 1180 268 Z" fill="#12B8F4"/>
    <line x1="375" y1="248" x2="395" y2="235" stroke="#FFFFFF" stroke-width="4" stroke-linecap="round" opacity="0.95"/>
    <line x1="575" y1="215" x2="598" y2="195" stroke="#FFFFFF" stroke-width="4" stroke-linecap="round" opacity="0.95"/>
    <line x1="635" y1="150" x2="650" y2="135" stroke="#FFFFFF" stroke-width="4" stroke-linecap="round" opacity="0.95"/>
    <line x1="870" y1="175" x2="887" y2="160" stroke="#FFFFFF" stroke-width="4" stroke-linecap="round" opacity="0.95"/>
    <line x1="1150" y1="240" x2="1170" y2="225" stroke="#FFFFFF" stroke-width="4" stroke-linecap="round" opacity="0.95"/>
  </g>

  <g id="wordmark">
    <text class="main" x="245" y="540" fill="#FFFFFF">HUNT</text>
    <text class="main" x="900" y="540" fill="#12B8F4">C</text>

    <g transform="translate(1110,485)" stroke="#FFFFFF" fill="none" stroke-width="12" stroke-linecap="square">
      <circle r="60"/>
      <line x1="-90" y1="0" x2="-38" y2="0"/>
      <line x1="38" y1="0" x2="90" y2="0"/>
      <line x1="0" y1="-90" x2="0" y2="-38"/>
      <line x1="0" y1="38" x2="0" y2="90"/>
      <circle r="10" fill="#FFFFFF" stroke="none"/>
    </g>
    
    <text class="main" x="1200" y="540" fill="#12B8F4">N</text>
  </g>

  <g id="year">
    <line x1="390" y1="645" x2="620" y2="645" stroke="#FFFFFF" stroke-width="8" stroke-linecap="square"/>
    <text class="year" x="800" y="664" text-anchor="middle" fill="#12B8F4">2027</text>
    <line x1="980" y1="645" x2="1210" y2="645" stroke="#FFFFFF" stroke-width="8" stroke-linecap="square"/>
  </g>

  <text class="sub" x="800" y="740" text-anchor="middle" fill="#FFFFFF">THREAT HUNTING CONFERENCE</text>
</svg>
